<mxfile host="app.diagrams.net" agent="Mozilla/5.0 (Macintosh; Intel Mac OS X 10_15_7) AppleWebKit/537.36 (KHTML, like Gecko) Chrome/130.0.0.0 Safari/537.36" version="24.8.3">
  <diagram name="Page-1" id="5yACLu_tYYQ9U0vQjmjW">
    <mxGraphModel dx="2658" dy="-557" grid="1" gridSize="10" guides="1" tooltips="1" connect="1" arrows="1" fold="1" page="1" pageScale="1" pageWidth="827" pageHeight="1169" math="0" shadow="0">
      <root>
        <mxCell id="0" />
        <mxCell id="1" parent="0" />
        <mxCell id="UiUJdN5zVrT5HYEZLua9-12" value="" style="endArrow=none;html=1;rounded=0;" parent="1" edge="1">
          <mxGeometry width="50" height="50" relative="1" as="geometry">
            <mxPoint x="-760" y="1320" as="sourcePoint" />
            <mxPoint x="-680" y="1320" as="targetPoint" />
          </mxGeometry>
        </mxCell>
        <mxCell id="UiUJdN5zVrT5HYEZLua9-13" value="" style="endArrow=none;html=1;rounded=0;" parent="1" edge="1">
          <mxGeometry width="50" height="50" relative="1" as="geometry">
            <mxPoint x="-680" y="1320" as="sourcePoint" />
            <mxPoint x="-680" y="1241" as="targetPoint" />
          </mxGeometry>
        </mxCell>
        <mxCell id="UiUJdN5zVrT5HYEZLua9-16" value="" style="endArrow=none;html=1;rounded=0;" parent="1" edge="1">
          <mxGeometry width="50" height="50" relative="1" as="geometry">
            <mxPoint x="-680" y="1241" as="sourcePoint" />
            <mxPoint x="-600" y="1240" as="targetPoint" />
          </mxGeometry>
        </mxCell>
        <mxCell id="lRFk7MbAO2a7tx0u4MGu-10" value="&lt;font style=&quot;font-size: 24px;&quot;&gt;Clock rises&lt;/font&gt;" style="text;html=1;align=center;verticalAlign=middle;resizable=0;points=[];autosize=1;strokeColor=none;fillColor=none;" parent="1" vertex="1">
          <mxGeometry x="-770" y="1169" width="140" height="40" as="geometry" />
        </mxCell>
        <mxCell id="lRFk7MbAO2a7tx0u4MGu-14" value="" style="shape=flexArrow;endArrow=classic;html=1;rounded=0;" parent="1" edge="1">
          <mxGeometry width="50" height="50" relative="1" as="geometry">
            <mxPoint x="-590" y="1281.29" as="sourcePoint" />
            <mxPoint x="-460" y="1281.29" as="targetPoint" />
          </mxGeometry>
        </mxCell>
        <mxCell id="lRFk7MbAO2a7tx0u4MGu-16" value="&lt;font style=&quot;font-size: 24px;&quot;&gt;Pattern Generator&lt;/font&gt;" style="rounded=0;whiteSpace=wrap;html=1;" parent="1" vertex="1">
          <mxGeometry x="-430" y="1252" width="120" height="60" as="geometry" />
        </mxCell>
        <mxCell id="lRFk7MbAO2a7tx0u4MGu-17" value="&lt;font style=&quot;font-size: 24px;&quot;&gt;Logic&lt;/font&gt;" style="rounded=0;whiteSpace=wrap;html=1;" parent="1" vertex="1">
          <mxGeometry x="-240" y="1252" width="120" height="60" as="geometry" />
        </mxCell>
        <mxCell id="lRFk7MbAO2a7tx0u4MGu-23" value="" style="endArrow=classic;html=1;rounded=0;entryX=0;entryY=0.5;entryDx=0;entryDy=0;exitX=1;exitY=0.5;exitDx=0;exitDy=0;" parent="1" source="lRFk7MbAO2a7tx0u4MGu-16" target="lRFk7MbAO2a7tx0u4MGu-17" edge="1">
          <mxGeometry width="50" height="50" relative="1" as="geometry">
            <mxPoint x="-300" y="1282" as="sourcePoint" />
            <mxPoint x="-350" y="1227" as="targetPoint" />
          </mxGeometry>
        </mxCell>
        <mxCell id="lRFk7MbAO2a7tx0u4MGu-24" value="&lt;font style=&quot;font-size: 24px;&quot;&gt;Logic samples the Pattern Generator&lt;/font&gt;" style="text;html=1;align=center;verticalAlign=middle;resizable=0;points=[];autosize=1;strokeColor=none;fillColor=none;" parent="1" vertex="1">
          <mxGeometry x="-460" y="1169" width="420" height="40" as="geometry" />
        </mxCell>
        <mxCell id="PznwtcTfy_HGHGF0H4fS-4" value="" style="endArrow=none;html=1;rounded=0;" edge="1" parent="1">
          <mxGeometry width="50" height="50" relative="1" as="geometry">
            <mxPoint x="-920" y="1321.7" as="sourcePoint" />
            <mxPoint x="-840" y="1321.7" as="targetPoint" />
          </mxGeometry>
        </mxCell>
        <mxCell id="PznwtcTfy_HGHGF0H4fS-5" value="" style="endArrow=none;html=1;rounded=0;" edge="1" parent="1">
          <mxGeometry width="50" height="50" relative="1" as="geometry">
            <mxPoint x="-840" y="1321.7" as="sourcePoint" />
            <mxPoint x="-840" y="1242.7" as="targetPoint" />
          </mxGeometry>
        </mxCell>
        <mxCell id="PznwtcTfy_HGHGF0H4fS-6" value="" style="endArrow=none;html=1;rounded=0;" edge="1" parent="1">
          <mxGeometry width="50" height="50" relative="1" as="geometry">
            <mxPoint x="-840" y="1242.7" as="sourcePoint" />
            <mxPoint x="-760" y="1241.7" as="targetPoint" />
          </mxGeometry>
        </mxCell>
        <mxCell id="PznwtcTfy_HGHGF0H4fS-7" value="" style="endArrow=none;html=1;rounded=0;" edge="1" parent="1">
          <mxGeometry width="50" height="50" relative="1" as="geometry">
            <mxPoint x="-760" y="1320" as="sourcePoint" />
            <mxPoint x="-760" y="1240" as="targetPoint" />
          </mxGeometry>
        </mxCell>
      </root>
    </mxGraphModel>
  </diagram>
</mxfile>
